<svg width="16" height="9" viewBox="0 0 16 9" fill="none" xmlns="http://www.w3.org/2000/svg">
<path d="M15.7079 0.291983C15.615 0.198856 15.5047 0.124969 15.3832 0.0745564C15.2617 0.0241432 15.1315 -0.00180435 14.9999 -0.00180435C14.8684 -0.00180435 14.7381 0.0241432 14.6167 0.0745564C14.4952 0.124969 14.3848 0.198856 14.2919 0.291983L7.99992 6.58598L1.70792 0.291983C1.61495 0.199007 1.50457 0.125254 1.38309 0.0749359C1.26161 0.0246181 1.13141 -0.00128174 0.999922 -0.00128174C0.868434 -0.00128174 0.738234 0.0246181 0.616755 0.0749359C0.495275 0.125254 0.384897 0.199007 0.291922 0.291983C0.198946 0.384958 0.125193 0.495337 0.0748749 0.616816C0.0245571 0.738295 -0.00134087 0.868495 -0.00134087 0.999983C-0.00134087 1.13147 0.0245571 1.26167 0.0748749 1.38315C0.125193 1.50463 0.198946 1.61501 0.291922 1.70798L7.29192 8.70798C7.38481 8.80111 7.49516 8.87499 7.61665 8.92541C7.73814 8.97582 7.86839 9.00177 7.99992 9.00177C8.13146 9.00177 8.2617 8.97582 8.38319 8.92541C8.50468 8.87499 8.61503 8.80111 8.70792 8.70798L15.7079 1.70798C15.801 1.61509 15.8749 1.50474 15.9253 1.38325C15.9758 1.26176 16.0017 1.13152 16.0017 0.999983C16.0017 0.868448 15.9758 0.738205 15.9253 0.616714C15.8749 0.495224 15.801 0.384874 15.7079 0.291983Z" fill="#808080"/>
</svg>
